<?xml version="1.0" encoding="UTF-8" standalone="no"?>
<!-- Generator: Adobe Illustrator 16.0.0, SVG Export Plug-In . SVG Version: 6.00 Build 0)  -->

<svg
   xmlns:dc="http://purl.org/dc/elements/1.1/"
   xmlns:cc="http://creativecommons.org/ns#"
   xmlns:rdf="http://www.w3.org/1999/02/22-rdf-syntax-ns#"
   xmlns:svg="http://www.w3.org/2000/svg"
   xmlns="http://www.w3.org/2000/svg"
   xmlns:sodipodi="http://sodipodi.sourceforge.net/DTD/sodipodi-0.dtd"
   xmlns:inkscape="http://www.inkscape.org/namespaces/inkscape"
   version="1.1"
   id="Capa_1"
   x="0px"
   y="0px"
   width="612px"
   height="612px"
   viewBox="0 0 612 612"
   style="enable-background:new 0 0 612 612;"
   xml:space="preserve"
   sodipodi:docname="inf1.svg"
   inkscape:version="0.92.3 (2405546, 2018-03-11)"><metadata
   id="metadata47"><rdf:RDF><cc:Work
       rdf:about=""><dc:format>image/svg+xml</dc:format><dc:type
         rdf:resource="http://purl.org/dc/dcmitype/StillImage" /><dc:title></dc:title></cc:Work></rdf:RDF></metadata><defs
   id="defs45" /><sodipodi:namedview
   pagecolor="#ffffff"
   bordercolor="#666666"
   borderopacity="1"
   objecttolerance="10"
   gridtolerance="10"
   guidetolerance="10"
   inkscape:pageopacity="0"
   inkscape:pageshadow="2"
   inkscape:window-width="1280"
   inkscape:window-height="961"
   id="namedview43"
   showgrid="false"
   inkscape:zoom="0.38562092"
   inkscape:cx="306"
   inkscape:cy="306"
   inkscape:window-x="-8"
   inkscape:window-y="-8"
   inkscape:window-maximized="1"
   inkscape:current-layer="Capa_1" />
<g
   id="g10"
   style="fill:#ffffff;fill-opacity:1">
	<g
   id="g8"
   style="fill:#ffffff;fill-opacity:1">
		<circle
   cx="312.954"
   cy="173.864"
   r="34.773"
   id="circle2"
   style="fill:#ffffff;fill-opacity:1" />
		<polygon
   points="389.454,459 347.728,459 347.728,236.455 236.455,236.455 236.455,264.273 278.182,264.273 278.182,459     236.455,459 236.455,486.818 389.454,486.818   "
   id="polygon4"
   style="fill:#ffffff;fill-opacity:1" />
		<path
   d="M612,306C612,137.004,474.995,0,306,0C137.004,0,0,137.004,0,306c0,168.995,137.004,306,306,306    C474.995,612,612,474.995,612,306z M27.818,306C27.818,152.36,152.36,27.818,306,27.818S584.182,152.36,584.182,306    S459.64,584.182,306,584.182S27.818,459.64,27.818,306z"
   id="path6"
   style="fill:#ffffff;fill-opacity:1" />
	</g>
</g>
<g
   id="g12">
</g>
<g
   id="g14">
</g>
<g
   id="g16">
</g>
<g
   id="g18">
</g>
<g
   id="g20">
</g>
<g
   id="g22">
</g>
<g
   id="g24">
</g>
<g
   id="g26">
</g>
<g
   id="g28">
</g>
<g
   id="g30">
</g>
<g
   id="g32">
</g>
<g
   id="g34">
</g>
<g
   id="g36">
</g>
<g
   id="g38">
</g>
<g
   id="g40">
</g>
</svg>